<svg xmlns:inkscape="http://www.inkscape.org/namespaces/inkscape" xmlns:sodipodi="http://sodipodi.sourceforge.net/DTD/sodipodi-0.dtd" xmlns="http://www.w3.org/2000/svg" xmlns:svg="http://www.w3.org/2000/svg" width="525" height="325" viewBox="0 0 138.90625 85.989586" version="1.1" id="svg5" inkscape:version="1.2.1 (9c6d41e410, 2022-07-14)" sodipodi:docname="Equation logo.svg" xml:space="preserve"><sodipodi:namedview id="namedview7" pagecolor="#ffffff" bordercolor="#000000" borderopacity="0.25" inkscape:showpageshadow="2" inkscape:pageopacity="0.0" inkscape:pagecheckerboard="0" inkscape:deskcolor="#d1d1d1" inkscape:document-units="mm" showgrid="false" inkscape:zoom="0.74990535" inkscape:cx="219.36102" inkscape:cy="229.36228" inkscape:window-width="1920" inkscape:window-height="1009" inkscape:window-x="-8" inkscape:window-y="-8" inkscape:window-maximized="1" inkscape:current-layer="layer1" showguides="true"><sodipodi:guide position="-54.455974,94.767028" orientation="1,0" id="guide1207" inkscape:locked="false"/><sodipodi:guide position="56.45157,6.2517427" orientation="0,-1" id="guide403" inkscape:locked="false"/><sodipodi:guide position="64.037249,91.634742" orientation="1,0" id="guide283" inkscape:locked="false"/><sodipodi:guide position="-4.4102789,111.92202" orientation="0.70710678,-0.70710678" id="guide356" inkscape:locked="false"/></sodipodi:namedview><defs id="defs2"><inkscape:path-effect effect="bspline" id="path-effect1105" is_visible="true" lpeversion="1" weight="33.333333" steps="2" helper_size="0" apply_no_weight="true" apply_with_weight="true" only_selected="false"/><inkscape:path-effect effect="bspline" id="path-effect914" is_visible="true" lpeversion="1" weight="33.333333" steps="2" helper_size="0" apply_no_weight="true" apply_with_weight="true" only_selected="false"/><inkscape:path-effect effect="bspline" id="path-effect906" is_visible="true" lpeversion="1" weight="33.333333" steps="2" helper_size="0" apply_no_weight="true" apply_with_weight="true" only_selected="false"/><inkscape:path-effect effect="bspline" id="path-effect900" is_visible="true" lpeversion="1" weight="33.333333" steps="2" helper_size="0" apply_no_weight="true" apply_with_weight="true" only_selected="false"/></defs><g inkscape:label="Layer 1" inkscape:groupmode="layer" id="layer1"><g id="g548" inkscape:label="g548 Q" transform="matrix(1.148315,0,0,1.148315,-7.7845275,-31.495638)"><g id="g2033" style="display:inline"><ellipse style="display:inline;fill: #fff;fill-opacity:1;stroke-width:0.36941" id="path968-4" cx="92.119904" cy="64.891914" rx="31.279745" ry="32.014595"/><ellipse style="display:inline;fill: #060818;fill-opacity:1;stroke-width:0.280072" id="path968" cx="92.119904" cy="64.891914" rx="23.715105" ry="24.272238"/></g></g><g id="g2484" style="display:inline" transform="matrix(1.1387005,0.1482856,-0.1482856,1.1387005,2.0689621,-41.071001)"><rect style="fill: #fff;fill-opacity:1;stroke-width:0.258318" id="rect2180" width="19.928377" height="1.7920763" x="129.17996" y="7.5233531" transform="rotate(31.861107)"/><ellipse style="fill: #ff181e;fill-opacity:1;stroke-width:0.241629" id="path2104-8-7" cx="27.980619" cy="123.88033" rx="3.1726751" ry="3.1294303" transform="rotate(-41.632921)"/><ellipse style="display:inline;fill: #ff181e;fill-opacity:1;stroke-width:0.241629" id="path2104-8-7-2" cx="34.754097" cy="147.07243" rx="3.1726751" ry="3.1294303" transform="rotate(-41.632921)"/></g><g id="g555" inkscape:label="g555 E" transform="matrix(1.148315,0,0,1.148315,-9.229846,-31.495638)" style="&#10;    color: #fff;&#10;"><path id="rect2530-2" style="display:inline;stroke-width:0.326654;fill: #fff;" d="m 25.194185,89.111601 0.0043,-48.980863 c 2.78e-4,-3.191977 2.496603,-5.41969 5.620111,-5.446768 3.12351,-0.02708 5.638752,2.520834 5.639557,5.712812 l 0.01226,48.61706 c 8.05e-4,3.191979 -2.349437,4.612499 -5.472947,4.639578 -3.123508,0.02708 -5.804624,-1.349841 -5.803258,-4.541819 z" sodipodi:nodetypes="ssssssss"/><rect style="display:inline;fill:#ffffff;fill-opacity:1;stroke-width:0.365829" id="rect2764" width="11.897129" height="27.966675" x="25.007261" y="50.495544" ry="5.6562681" rx="5.8892283"/><path style="display:inline;fill: #ff181e;fill-opacity:1;stroke-width:0.264583" d="m 12.623684,47.451941 c 2.218529,1.373213 5.784549,4.128254 8.643988,6.311537 2.859439,2.183284 5.012291,3.794811 6.546587,4.591802 1.534296,0.79699 2.450195,0.779604 3.177358,0.304671 0.727164,-0.474932 1.26578,-1.407659 1.786359,-2.276871 0.52058,-0.869213 1.023127,-1.674896 1.836333,-1.962641 0.813207,-0.287746 1.936793,-0.05734 3.490151,1.480628 1.553358,1.537965 3.536423,4.383238 6.239847,8.491954 2.703424,4.108715 6.127138,9.48074 7.736585,12.758475 1.609446,3.277735 1.40474,4.460821 0.20703,4.370659 -1.197711,-0.09016 -3.388593,-1.453366 -6.657317,-3.942192 -3.268724,-2.488826 -7.615236,-6.103282 -10.164168,-7.648968 -2.548931,-1.545686 -3.299912,-1.022521 -3.987212,-0.166564 -0.687301,0.855957 -1.310861,2.044464 -2.303014,2.926396 -0.992153,0.881932 -2.368174,1.463938 -5.785088,-2.346087 C 19.97421,66.534716 14.508511,58.335637 11.712375,53.562812 8.9162385,48.789987 8.7898207,47.443355 9.1620617,46.765432 9.5343026,46.08751 10.405154,46.078727 12.623684,47.451941 Z" id="path1103" inkscape:path-effect="#path-effect1105" inkscape:original-d="m 11.275973,46.069944 c 3.566082,2.755415 7.132101,5.510456 10.69807,8.265129 2.152911,1.611898 4.305761,3.223428 6.458561,4.834585 0.915958,-0.01702 1.831857,-0.0344 2.747704,-0.05216 0.538675,-0.932362 1.077291,-1.865089 1.615853,-2.79819 0.502605,-0.80531 1.005148,-1.610995 1.50764,-2.41705 1.123644,0.23078 2.24723,0.461188 3.37076,0.691226 1.983121,2.845643 3.966185,5.690917 5.949197,8.535821 3.423845,5.372513 6.847558,10.744538 10.27136,16.116417 -0.204669,1.183528 -0.409369,2.366615 -0.614144,3.549401 -2.190913,-1.362889 -4.381795,-2.726093 -6.572782,-4.089697 -4.34647,-3.614098 -8.692982,-7.228554 -13.039556,-10.843385 -0.750938,0.523544 -1.501919,1.046708 -2.252985,1.569523 -0.623531,1.188927 -1.247092,2.377433 -1.870721,3.565597 -1.360731,0.575932 -2.736752,1.157937 -4.105211,1.736351 C 19.974076,66.534805 14.508378,58.335726 9.042624,50.136274 8.9162594,48.789985 8.7898414,47.443353 8.6633626,46.096294 c 0.8709439,-0.0084 1.7417954,-0.0172 2.6126104,-0.02635 z" sodipodi:nodetypes="cccccccccccccccccc" transform="translate(-0.07837003)"/><path id="rect2530-2-7-7" style="display:inline;stroke-width: 0.260779;fill: #fff;" d="m 29.409564,85.524524 29.966906,0.07039 c 2.316783,0.0054 4.176862,1.874959 4.170578,4.19174 l -0.0079,2.912058 c -0.0063,2.316782 -1.87648,4.177536 -4.193263,4.172093 l -29.966907,-0.07039 c -2.316783,-0.0054 -4.176861,-1.874959 -4.170578,-4.19174 l 0.0079,-2.912059 c 0.0063,-2.316781 1.876479,-4.177535 4.193263,-4.172093 z"/><path id="rect2530-2-7-7-7" style="display:inline;stroke-width:0.260779;fill: #fff;" transform="matrix(0.99999841,-0.00178497,0.00142175,0.99999899,0,0)" d="m 29.333362,32.938049 h 29.966989 c 2.31679,0 4.181932,1.865142 4.181932,4.181932 v 2.912069 c 0,2.31679 -1.865142,4.181932 -4.181932,4.181932 H 29.333362 c -2.31679,0 -4.181932,-1.865142 -4.181932,-4.181932 v -2.912069 c 0,-2.31679 1.865142,-4.181932 4.181932,-4.181932 z"/></g></g></svg>